<svg viewBox="0 0 348.00 340.00" xmlns="http://www.w3.org/2000/svg">
  <path d="M174.15 95.29999999999995C174.15 113.89999999999995 162.15 132.79999999999995 152.85 140.59999999999997C143.85000000000002 146.59999999999997 138.75 155.89999999999995 142.95 166.09999999999997C148.35000000000002 176.89999999999998 164.85 177.79999999999995 172.95000000000002 169.09999999999997C184.65 157.69999999999996 190.65 130.99999999999997 178.35 95.59999999999997ZM113.85000000000001 129.49999999999997H155.55C159.45000000000002 129.49999999999997 162.45000000000002 127.99999999999997 163.35 124.69999999999996C153.45000000000002 114.19999999999996 135.75 98.89999999999995 135.75 98.89999999999995L120.75000000000001 121.09999999999997H113.85000000000001V70.69999999999996C124.95 68.29999999999995 134.85000000000002 65.59999999999997 143.25 62.89999999999995C152.85 66.19999999999996 159.45000000000002 65.29999999999995 163.05 62.299999999999955L123.75000000000001 28.99999999999997C104.55000000000001 44.89999999999998 64.95000000000002 66.79999999999995 32.85000000000001 78.79999999999995L33.750000000000014 82.39999999999995C48.45000000000001 81.49999999999997 64.05000000000001 79.39999999999995 79.35000000000001 77.29999999999995V121.09999999999997H34.35000000000001L36.750000000000014 129.49999999999997H76.35000000000001C67.95000000000002 171.19999999999996 52.35000000000001 216.19999999999996 29.55000000000001 248.29999999999995L33.15000000000001 251.59999999999997C50.85000000000001 237.19999999999996 66.45000000000002 220.39999999999995 79.35000000000001 201.49999999999994V310.69999999999993H85.65C102.45 310.69999999999993 113.55000000000001 302.9 113.85000000000001 300.79999999999995V163.39999999999998C120.75000000000001 176.59999999999997 126.75000000000001 193.39999999999998 127.05000000000001 207.79999999999995C152.25 231.19999999999996 181.95000000000002 180.19999999999996 113.85000000000001 153.79999999999995ZM277.35 92.29999999999995C268.35 115.99999999999997 256.65 141.19999999999996 246.75 159.19999999999996C240.75 129.79999999999995 237.75 94.39999999999995 236.25 51.799999999999955V44.89999999999998C243.45000000000002 43.69999999999996 246.75 40.99999999999997 247.35 36.19999999999996L202.35 31.99999999999997C202.35 161.59999999999997 210.45000000000002 245.59999999999997 119.55000000000001 306.19999999999993L122.55000000000001 310.99999999999994C207.15 273.79999999999995 228.15 220.09999999999997 233.85 145.99999999999997C238.95000000000002 226.99999999999994 251.85 282.19999999999993 286.05 310.99999999999994C289.65 290.29999999999995 301.05 274.99999999999994 318.15 270.79999999999995L318.45 267.49999999999994C280.65 246.79999999999995 259.95 215.89999999999998 248.55 167.59999999999997C268.35 155.29999999999995 288.15 137.29999999999995 305.25 118.99999999999997C311.85 120.19999999999996 316.05 118.39999999999995 317.85 114.79999999999995Z" />
</svg>
