<svg viewBox="0 0 348.00 340.00" xmlns="http://www.w3.org/2000/svg">
  <path d="M113.0 145.5H154.4C152.9 146.70000000000002 151.7 147.9 150.5 148.8C139.7 155.1 133.39999999999998 165.9 138.2 178.2C143.89999999999998 192.0 163.1 195.0 172.4 185.7C185.29999999999998 173.4 189.79999999999998 146.70000000000002 174.79999999999998 110.70000000000002H171.2C171.5 120.6 166.4 130.8 160.4 138.6C149.6 127.20000000000002 132.5 112.20000000000002 132.5 112.20000000000002L115.7 137.1H113.0V90.0C123.2 87.9 132.5 85.80000000000001 140.6 83.70000000000002C151.4 87.30000000000001 158.6 86.4 162.79999999999998 83.1L115.7 42.900000000000034C97.1 59.400000000000006 58.699999999999996 83.1 27.5 96.30000000000001L28.1 99.30000000000001C42.2 98.70000000000002 56.6 97.5 71.0 96.0V137.1H29.6L32.0 145.5H68.3C60.8 186.9 46.4 233.10000000000002 24.8 264.9L28.1 267.9C44.3 255.6 58.699999999999996 241.8 71.0 226.5V327.9H78.8C99.5 327.9 112.7 318.6 113.0 316.2V179.7C118.39999999999999 193.5 122.0 210.3 121.1 225.3C149.6 253.5 186.79999999999998 195.9 113.0 168.9ZM268.4 105.9C261.5 127.5 252.79999999999998 151.5 245.29999999999998 168.9C240.2 143.1 237.5 111.9 236.29999999999998 74.4V60.0C243.5 58.80000000000001 246.79999999999998 56.10000000000002 247.4 51.30000000000001L194.6 46.5C194.6 179.10000000000002 203.9 261.9 115.7 323.4L118.39999999999999 327.6C204.2 293.1 227.0 242.1 233.29999999999998 169.8C237.5 250.5 248.0 303.3 277.7 328.5C281.59999999999997 302.7 295.4 282.3 316.09999999999997 276.6L316.4 273.0C278.9 255.3 258.5 227.10000000000002 247.4 178.8C266.9 167.4 286.09999999999997 152.1 302.9 136.20000000000002C309.8 137.4 314.3 135.6 316.09999999999997 132.0Z" />
</svg>
