<svg viewBox="0 0 348.00 340.00" xmlns="http://www.w3.org/2000/svg">
  <path d="M223.95 172.70000000000005 208.04999999999998 189.50000000000003H138.75L119.25 182.3C127.05000000000001 174.20000000000005 133.95000000000002 165.8 139.95 156.8H219.75C223.04999999999998 164.3 226.65 171.20000000000005 230.54999999999998 177.8ZM134.85 282.5V243.20000000000002H210.15V282.5ZM134.85 197.90000000000003H210.15V234.50000000000003H134.85ZM304.65 156.8C309.15 156.8 312.45 155.30000000000004 313.05 152.00000000000003C299.55 140.00000000000003 277.05 123.20000000000002 277.05 123.20000000000002L256.95 148.10000000000002H145.65C151.95 137.90000000000003 157.04999999999998 127.40000000000003 161.85 116.60000000000002H274.05C278.25 116.60000000000002 281.25 115.10000000000002 282.15 111.80000000000004C269.85 101.00000000000003 249.45 85.40000000000003 249.45 85.40000000000003L231.45 107.90000000000003H165.15C169.04999999999998 98.00000000000003 172.35 87.80000000000004 174.75 77.60000000000002H292.34999999999997C296.84999999999997 77.60000000000002 300.15 76.10000000000002 301.05 72.80000000000004C287.55 61.10000000000002 266.25 44.900000000000034 266.25 44.900000000000034L247.04999999999998 68.90000000000003H176.85C178.95 61.10000000000002 180.45 53.30000000000004 181.95 45.200000000000045C189.15 45.200000000000045 192.75 42.200000000000045 193.65 37.700000000000045L142.65 29.00000000000003C141.45 41.900000000000034 139.35 55.400000000000034 136.65 68.90000000000003H48.150000000000006L50.55000000000001 77.60000000000002H134.85C132.45000000000002 87.80000000000004 129.75 98.00000000000003 126.45000000000002 107.90000000000003H60.75000000000001L62.85000000000001 116.60000000000002H123.45000000000002C119.55000000000001 127.40000000000003 115.05000000000001 137.90000000000003 109.95000000000002 148.10000000000002H35.25000000000001L37.650000000000006 156.8H105.15C88.05000000000001 186.50000000000003 64.05000000000001 214.40000000000003 30.150000000000006 236.3L32.550000000000004 239.00000000000003C58.650000000000006 228.8 80.25 216.20000000000005 98.25 201.8V311.0H105.15C123.75 311.0 134.85 302.90000000000003 134.85 300.20000000000005V290.90000000000003H210.15V309.8H216.75C229.04999999999998 309.8 247.35 302.6 247.65 299.90000000000003V201.20000000000005H248.25C260.85 215.00000000000003 275.55 225.8 292.05 233.3C293.55 219.8 302.84999999999997 209.60000000000002 317.25 200.90000000000003L317.84999999999997 196.70000000000005C285.75 192.8 247.95 180.8 228.15 156.8Z" />
</svg>
