<svg viewBox="0 0 348.00 340.00" xmlns="http://www.w3.org/2000/svg">
  <path d="M216.5 184.5 197.29999999999998 204.60000000000002H141.5L119.89999999999999 196.8C127.7 188.7 134.3 180.3 140.6 171.6H217.7C220.7 179.10000000000002 224.29999999999998 186.3 228.2 193.5ZM137.3 298.8V258.3H199.7V298.8ZM137.3 213.0H199.7V249.9H137.3ZM302.3 171.6C306.8 171.6 310.4 170.1 311.0 166.8C295.7 153.9 269.9 135.0 269.9 135.0L247.4 163.20000000000002H146.0C152.0 153.3 157.4 142.8 161.9 132.0H270.2C274.4 132.0 277.7 130.5 278.59999999999997 127.20000000000002C264.79999999999995 115.5 242.0 98.4 242.0 98.4L221.9 123.6H165.2C169.1 113.70000000000002 172.4 103.5 175.1 93.30000000000001H290.3C294.8 93.30000000000001 298.09999999999997 91.80000000000001 299.0 88.5C284.3 75.9 259.7 57.60000000000002 259.7 57.60000000000002L238.1 84.9H177.2C179.0 77.1 180.5 69.0 182.0 60.900000000000006C189.5 60.60000000000002 192.79999999999998 57.60000000000002 193.7 53.10000000000002L132.8 42.900000000000034C131.89999999999998 56.400000000000006 130.1 70.5 127.7 84.9H42.5L44.9 93.30000000000001H125.89999999999999C123.8 103.5 121.39999999999999 113.4 118.39999999999999 123.6H54.199999999999996L56.6 132.0H115.7C112.1 142.5 107.6 153.0 102.5 163.20000000000002H30.799999999999997L33.2 171.6H98.3C82.1 201.3 58.699999999999996 229.5 24.8 252.6L26.9 255.0C52.699999999999996 245.7 74.3 234.0 92.3 220.8V328.2H100.7C123.8 328.2 137.3 318.6 137.3 315.6V307.2H199.7V327.0H208.1C223.7 327.0 246.2 318.3 246.5 315.6V219.60000000000002C257.9 232.5 271.4 243.3 286.7 250.5C288.2 234.0 298.7 220.5 315.8 208.8L316.4 204.3C284.59999999999997 202.8 246.79999999999998 194.10000000000002 226.1 171.6Z" />
</svg>
