<svg viewBox="0 0 348.00 340.00" xmlns="http://www.w3.org/2000/svg">
  <path d="M213.60000000000002 220.39999999999995C203.70000000000002 233.29999999999995 190.8 244.99999999999994 175.5 255.19999999999996C159.0 248.89999999999995 145.20000000000002 240.79999999999995 134.1 230.89999999999995C137.70000000000002 227.59999999999997 141.3 223.99999999999994 144.9 220.39999999999995ZM229.5 187.69999999999996V198.49999999999994H231.9L215.70000000000002 211.69999999999996H152.4C158.70000000000002 203.89999999999998 164.4 196.09999999999997 168.9 187.69999999999996ZM117.0 155.29999999999995H229.5V179.29999999999995H117.0ZM229.5 91.39999999999995V114.79999999999995H117.0V91.39999999999995ZM229.5 146.89999999999995H117.0V123.19999999999996H229.5ZM243.0 197.59999999999997C253.8 195.79999999999995 264.59999999999997 190.09999999999997 264.9 188.29999999999995V97.09999999999997C270.59999999999997 95.89999999999995 274.2 93.49999999999997 276.3 91.09999999999997L242.70000000000002 66.19999999999996L226.5 83.29999999999995H163.20000000000002C170.70000000000002 76.09999999999997 179.10000000000002 67.39999999999995 186.0 59.299999999999955H302.7C307.2 59.299999999999955 310.5 57.799999999999955 311.4 54.49999999999997C297.29999999999995 43.39999999999998 274.8 28.69999999999996 274.8 28.69999999999996L255.3 50.599999999999966H38.7L41.10000000000001 59.299999999999955H146.4C145.5 66.79999999999995 144.3 75.79999999999995 142.8 83.29999999999995H119.1L82.2 68.59999999999997V205.09999999999997H87.60000000000001C102.0 205.09999999999997 117.0 197.29999999999995 117.0 193.99999999999994V187.69999999999996H126.3C111.3 219.49999999999994 85.2 251.59999999999997 52.5 273.19999999999993L54.900000000000006 277.09999999999997C82.8 266.29999999999995 107.7 252.79999999999995 127.8 235.99999999999994C136.8 247.69999999999996 145.8 257.59999999999997 156.60000000000002 266.29999999999995C122.1 285.19999999999993 78.60000000000001 298.69999999999993 32.400000000000006 307.09999999999997L33.900000000000006 311.29999999999995C88.8 308.59999999999997 138.6 299.29999999999995 179.70000000000002 281.59999999999997C207.3 296.59999999999997 243.0 305.59999999999997 292.79999999999995 310.4C294.59999999999997 293.59999999999997 301.79999999999995 282.79999999999995 315.0 277.69999999999993L315.59999999999997 274.09999999999997C275.09999999999997 274.09999999999997 240.3 271.4 211.20000000000002 265.4C228.3 254.89999999999995 243.60000000000002 242.59999999999997 256.2 227.89999999999995C264.3 227.59999999999997 267.59999999999997 226.69999999999996 270.0 223.39999999999995Z" />
</svg>
