<svg viewBox="0 0 348.00 340.00" xmlns="http://www.w3.org/2000/svg">
  <path d="M205.4 235.5C196.4 247.5 185.0 258.6 171.79999999999998 268.2C157.4 263.4 145.1 257.1 135.2 249.3C140.6 244.8 145.7 240.3 150.2 235.5ZM221.0 202.2V212.7H223.7L206.6 227.10000000000002H158.0C164.6 219.3 170.29999999999998 210.9 175.1 202.2ZM120.5 169.8H221.0V193.8H120.5ZM221.0 105.9V129.3H120.5V105.9ZM221.0 161.4H120.5V137.70000000000002H221.0ZM239.9 211.5C252.2 208.8 264.2 203.10000000000002 264.5 200.7V112.20000000000002C269.9 111.0 273.2 108.6 275.0 106.5L236.9 77.70000000000002L218.0 97.80000000000001H160.7C169.4 90.9 179.0 81.9 187.1 74.1H301.09999999999997C305.59999999999997 74.1 308.9 72.6 309.8 69.30000000000001C293.59999999999997 57.60000000000002 268.7 41.69999999999999 268.7 41.69999999999999L246.5 65.70000000000002H32.6L35.0 74.1H138.8C137.89999999999998 81.30000000000001 136.7 90.30000000000001 135.5 97.80000000000001H122.89999999999999L77.9 80.4V220.8H84.2C101.89999999999999 220.8 120.5 211.2 120.5 207.0V202.2H122.89999999999999C109.7 233.7 85.39999999999999 266.7 53.6 287.7L55.699999999999996 291.3C83.0 281.7 107.6 269.7 128.0 254.7C135.2 264.9 142.7 273.6 151.7 281.4C117.2 301.2 73.69999999999999 315.6 27.2 324.6L28.4 328.2C84.5 326.7 135.8 317.7 178.4 300.0C204.79999999999998 314.4 239.0 323.1 287.0 327.6C288.8 307.2 296.59999999999997 294.0 313.09999999999997 287.4L313.4 283.5C277.4 284.4 245.6 282.9 218.0 279.0C232.7 269.4 245.6 258.3 256.7 245.4C264.79999999999995 245.1 268.1 244.2 270.2 240.6Z" />
</svg>
