<svg viewBox="0 0 348.00 340.00" xmlns="http://www.w3.org/2000/svg">
  <path d="M87.8 272.7C143.0 288.0 192.79999999999998 312.3 214.7 327.3C258.5 339.0 275.6 251.4 88.39999999999999 269.4ZM127.1 217.2C156.2 231.0 180.79999999999998 250.5 190.4 261.3C228.5 274.2 245.6 198.3 128.0 213.9ZM210.5 95.4C200.29999999999998 113.70000000000002 186.79999999999998 131.1 170.6 146.70000000000002C154.7 137.1 140.89999999999998 125.4 130.39999999999998 111.30000000000001C135.5 106.20000000000002 140.3 100.80000000000001 145.1 95.4ZM237.2 63.0 210.2 87.0H152.0C158.9 78.30000000000001 165.2 69.60000000000002 170.6 60.60000000000002C179.0 60.900000000000006 181.4 59.400000000000006 182.6 55.80000000000001L124.1 42.0C110.0 88.20000000000002 76.69999999999999 139.5 40.7 167.1L42.5 169.20000000000002C72.5 157.5 100.39999999999999 139.20000000000002 124.1 117.0C131.89999999999998 134.70000000000002 141.5 149.70000000000002 152.6 162.6C117.8 190.8 73.4 213.60000000000002 24.8 229.2L26.3 232.5C85.39999999999999 225.3 135.8 209.4 176.9 185.4C205.4 207.3 240.5 221.10000000000002 281.3 230.7C286.09999999999997 209.4 297.8 195.0 317.0 190.2L317.3 186.3C279.5 183.0 241.4 176.7 208.1 164.70000000000002C229.7 147.9 248.0 128.4 262.7 106.20000000000002C271.1 105.6 274.4 104.70000000000002 276.8 100.80000000000001Z" />
</svg>
