<svg viewBox="0 0 348.00 340.00" xmlns="http://www.w3.org/2000/svg">
  <path d="M90.6 256.07753975426795C148.5 270.777539754268 199.5 295.07753975426795 221.70000000000002 310.67753975426797C259.5 320.87753975426796 272.4 244.97753975426798 91.5 252.17753975426797ZM131.1 201.47753975426798C161.10000000000002 214.37753975426796 186.3 232.97753975426798 196.5 243.77753975426796C228.60000000000002 254.27753975426796 242.4 190.07753975426797 132.3 197.57753975426797ZM217.5 80.27753975426796C206.70000000000002 99.77753975426796 192.0 117.77753975426796 174.60000000000002 134.27753975426796C156.9 123.17753975426797 142.20000000000002 109.67753975426797 130.8 93.17753975426797C135.0 88.97753975426798 138.9 84.77753975426796 142.5 80.27753975426796ZM240.60000000000002 51.47753975426798 217.5 71.87753975426799H149.4C156.3 62.877539754267985 162.60000000000002 53.877539754267985 168.0 44.877539754267985C176.10000000000002 45.47753975426798 178.5 44.27753975426799 180.0 40.67753975426797L130.5 28.377539754267957C114.9 73.67753975426797 79.8 124.07753975426797 42.900000000000006 151.67753975426797L45.300000000000004 154.07753975426797C74.7 141.47753975426798 102.3 121.67753975426797 125.4 98.87753975426799C134.1 117.77753975426796 145.5 134.27753975426796 158.70000000000002 148.07753975426797C123.6 176.57753975426797 78.9 199.07753975426797 29.400000000000006 214.67753975426797L31.200000000000006 218.57753975426797C89.7 209.57753975426797 139.20000000000002 191.87753975426796 179.4 166.97753975426798C209.10000000000002 189.777539754268 246.3 204.47753975426798 288.29999999999995 214.37753975426796C292.2 196.97753975426798 302.4 185.277539754268 318.29999999999995 181.67753975426797L318.59999999999997 178.07753975426797C278.09999999999997 173.57753975426797 237.9 165.17753975426797 203.70000000000002 149.87753975426799C226.5 132.17753975426797 245.4 111.77753975426796 260.4 88.67753975426797C268.8 88.37753975426799 272.09999999999997 87.47753975426798 274.5 83.87753975426799Z" />
</svg>
